Coordinates
version=1
nRows=11
nColumns=42
inDegrees=yes

Units are S.I. units (second, meters, Newtons, ...)
If the header above contains a line with 'inDegrees', this indicates whether rotational values are in degrees (yes) or radians (no).

endheader
time	pelvis_tilt	pelvis_list	pelvis_rotation	pelvis_tx	pelvis_ty	pelvis_tz	hip_flexion_r	hip_adduction_r	hip_rotation_r	knee_angle_r	knee_adduction_r	knee_angle_r_beta	ankle_angle_r	subtalar_angle_r	mtp_angle_r	hip_flexion_l	hip_adduction_l	hip_rotation_l	knee_angle_l	knee_adduction_l	knee_angle_l_beta	ankle_angle_l	subtalar_angle_l	mtp_angle_l	lumbar_extension	lumbar_bending	lumbar_rotation	arm_flex_r	arm_add_r	arm_rot_r	elbow_flex_r	pro_sup_r	wrist_flex_r	wrist_dev_r	arm_flex_l	arm_add_l	arm_rot_l	elbow_flex_l	pro_sup_l	wrist_flex_l	wrist_dev_l
      1.77000000	     13.64366056	     -4.33122221	      3.05513510	     -0.31058029	      0.87961380	      0.16253363	      7.35478096	      2.42356710	    -23.35390956	     28.05750456	      0.24404957	      0.48969583	     14.41306136	     31.30078738	     -7.51232915	    -25.14193537	     -5.47339529	    -12.46958352	     40.56934337	     -9.35501297	      0.70806862	     10.76383195	     25.81443744	     -7.51232915	    -35.65457568	      7.90581233	      1.65607227	     -1.22709999	    -16.09933229	      0.12324181	     44.13665150	     90.00000001	      0.00000000	      0.00000000	     22.40997933	    -14.58336309	      8.68623519	     52.34481431	     90.00000001	      0.00000000	      0.00000000
      1.78000000	     13.67513243	     -4.76644228	      3.34478853	     -0.29769757	      0.88212029	      0.16401464	      5.84968468	      3.20762002	    -24.13840186	     26.93587756	      0.09959694	      0.47011975	     14.73485148	     32.27352722	     -7.51173712	    -23.27330730	     -6.39536104	    -13.29299281	     43.67700219	    -10.45778241	      0.76230750	     10.99263931	     26.33555767	     -7.51173712	    -35.72379295	      8.36093650	      1.80902407	     -0.96563199	    -16.14981085	      0.18144122	     44.37433251	     90.00000001	      0.00000000	      0.00000000	     21.78673607	    -14.54680552	      8.96400304	     52.06941981	     90.00000001	      0.00000000	      0.00000000
      1.79000000	     13.70081354	     -4.90351197	      3.65442131	     -0.28513700	      0.88468249	      0.16510466	      4.33640543	      3.62556333	    -24.63309280	     25.84273765	      0.15619642	      0.45104086	     15.28280146	     33.00278062	     -7.51137429	    -21.32213650	     -6.86711049	    -13.63129116	     46.50655447	    -11.47232623	      0.81169250	     11.29206787	     26.03337582	     -7.51137429	    -35.81291335	      8.54537704	      1.83493191	     -0.71850960	    -16.17818808	      0.20223732	     44.67355993	     90.00000001	      0.00000000	      0.00000000	     21.22741439	    -14.49716785	      9.18542689	     51.71928844	     90.00000001	      0.00000000	      0.00000000
      1.80000000	     13.73952290	     -4.88531856	      4.03800558	     -0.27277516	      0.88718855	      0.16599045	      2.81126367	      3.85321911	    -25.37782223	     24.74941272	      0.18602133	      0.43195874	     15.68888248	     33.92748975	     -7.51100821	    -19.29087314	     -7.12537845	    -13.92120393	     49.02161031	    -12.54527174	      0.85558850	     11.91903039	     25.77536207	     -7.51100821	    -35.92149373	      8.60621380	      1.76183547	     -0.48713755	    -16.17774334	      0.19789211	     45.06709352	     90.00000001	      0.00000000	      0.00000000	     20.72639355	    -14.47268392	      9.46515384	     51.30526292	     90.00000001	      0.00000000	      0.00000000
      1.81000000	     13.78986807	     -4.70989464	      4.46184764	     -0.26064908	      0.88965076	      0.16667454	      1.29946853	      3.91469370	    -25.97940389	     23.70609306	      0.28507620	      0.41374938	     16.12833407	     34.69927102	     -7.51068337	    -17.20377041	     -7.15149471	    -14.13997935	     51.22028110	    -13.58307305	      0.89396255	     12.70620301	     25.31746058	     -7.51068337	    -36.05996992	      8.52762005	      1.60669111	     -0.26032875	    -16.16499151	      0.19693752	     45.52654831	     90.00000001	      0.00000000	      0.00000000	     20.27027768	    -14.46252598	      9.73718441	     50.83006722	     90.00000001	      0.00000000	      0.00000000
      1.82000000	     13.82012018	     -4.40721317	      4.89143424	     -0.24865386	      0.89197998	      0.16730415	     -0.14798226	      3.83081000	    -26.58156760	     22.76159433	      0.40299700	      0.39726476	     16.52409871	     35.40953529	     -7.51031265	    -15.07749244	     -6.96470703	    -14.24217286	     53.07035752	    -14.48724324	      0.92625247	     13.59956217	     24.73398738	     -7.51031265	    -36.19185901	      8.31623122	      1.40812059	     -0.05301817	    -16.12862165	      0.20325945	     46.04606358	     90.00000001	      0.00000000	      0.00000000	     19.84285256	    -14.48903417	     10.02872564	     50.32067835	     90.00000001	      0.00000000	      0.00000000
      1.83000000	     13.86789311	     -3.90265327	      5.23915304	     -0.23679542	      0.89431319	      0.16768313	     -1.59822926	      3.47296451	    -26.56831852	     21.94673284	      0.81769889	      0.38304275	     16.95423007	     35.29233705	     -7.51015244	    -13.02744498	     -6.39905586	    -14.39889206	     54.43786035	    -15.35764596	      0.95011990	     14.30862317	     24.19413571	     -7.51015244	    -36.37293503	      7.90180876	      1.15392075	      0.20087092	    -16.11323336	      0.22248075	     46.56055665	     90.00000001	      0.00000000	      0.00000000	     19.37535539	    -14.49065781	     10.14346198	     49.85476369	     90.00000001	      0.00000000	      0.00000000
      1.84000000	     13.84423743	     -3.47628903	      5.62297565	     -0.22499097	      0.89627260	      0.16825172	     -2.94802937	      3.25992442	    -26.54284411	     21.09501019	      1.17127455	      0.36817738	     17.42285625	     35.30431876	     -7.50999369	    -10.86690137	     -5.93364725	    -14.51148769	     55.59732242	    -16.05359347	      0.97035633	     15.28346360	     23.50766071	     -7.50999369	    -36.46761184	      7.53956924	      0.94557860	      0.40199177	    -16.10727981	      0.28113560	     47.14313282	     90.00000001	      0.00000000	      0.00000000	     18.94749656	    -14.51334251	     10.29162394	     49.31893700	     90.00000001	      0.00000000	      0.00000000
      1.85000000	     13.78409644	     -3.08332688	      5.96665457	     -0.21321500	      0.89796503	      0.16874537	     -4.20696733	      3.09402992	    -26.43061335	     20.29833622	      1.46426137	      0.35427280	     17.89120397	     35.32515492	     -7.50982970	     -8.71397537	     -5.45548121	    -14.53435548	     56.44697498	    -16.47558415	      0.98518557	     16.36724851	     22.72101858	     -7.50982970	    -36.52906118	      7.21476363	      0.80959288	      0.58289710	    -16.17259162	      0.35985653	     47.78288396	     90.00000001	      0.00000000	      0.00000000	     18.47551399	    -14.51340903	     10.46590037	     48.75626122	     90.00000001	      0.00000000	      0.00000000
      1.86000000	     13.75645076	     -2.72828750	      6.25728323	     -0.20146545	      0.89947248	      0.16949386	     -5.43893155	      3.00903527	    -26.48470387	     19.55531502	      1.59511060	      0.34130463	     18.32057149	     35.70593464	     -7.50933397	     -6.67981092	     -5.01883827	    -14.02349828	     57.08849387	    -16.21775589	      0.99638218	     17.50159354	     21.16291794	     -7.50933397	    -36.62400591	      6.87804143	      0.80206836	      0.69305945	    -16.30723738	      0.57769084	     48.56404101	     90.00000001	      0.00000000	      0.00000000	     18.05835668	    -14.55761121	     10.82064975	     48.16614691	     90.00000001	      0.00000000	      0.00000000
      1.87000000	     13.67168792	     -2.33767292	      6.44156135	     -0.18968792	      0.90066758	      0.17014507	     -6.61063480	      2.82858467	    -25.99602447	     18.87527962	      1.96006889	      0.32943578	     18.82017989	     35.36634703	     -7.50916430	     -4.66028827	     -4.45625296	    -14.11007424	     57.22922035	    -16.33318161	      0.99883832	     18.46939388	     20.49651291	     -7.50916430	    -36.66297626	      6.47794891	      0.79120851	      0.87330478	    -16.40982582	      0.64032226	     49.22289896	     90.00000001	      0.00000000	      0.00000000	     17.50257487	    -14.56468959	     10.87322920	     47.69543560	     90.00000001	      0.00000000	      0.00000000
